<?xml version="1.0" standalone="no"?>
<!DOCTYPE svg PUBLIC "-//W3C//DTD SVG 20010904//EN"
 "http://www.w3.org/TR/2001/REC-SVG-20010904/DTD/svg10.dtd">
<svg version="1.0" xmlns="http://www.w3.org/2000/svg"
 width="100.000000pt" height="100.000000pt" viewBox="0 0 100.000000 100.000000"
 preserveAspectRatio="xMidYMid meet">
<metadata>
Created by potrace 1.16, written by Peter Selinger 2001-2019
</metadata>
<g transform="translate(0.000000,100.000000) scale(0.100000,-0.100000)"
fill="#000000" stroke="none">
<path d="M366 989 c-130 -32 -261 -144 -324 -276 l-37 -78 0 -135 0 -135 37
-78 c53 -110 128 -186 237 -240 l84 -42 137 0 137 0 84 42 c109 54 184 130
237 240 l37 78 0 135 0 135 -37 78 c-52 109 -128 186 -236 239 -82 41 -86 42
-200 45 -64 1 -134 -2 -156 -8z m269 -219 c26 -13 62 -38 81 -57 26 -25 39
-32 57 -28 18 5 26 1 35 -19 6 -14 8 -26 3 -26 -5 0 -24 -7 -43 -15 l-35 -14
12 -48 c12 -44 15 -48 40 -45 l27 3 -7 -53 c-14 -103 -69 -185 -156 -233 -48
-27 -63 -30 -139 -30 -97 0 -157 23 -216 82 -26 26 -39 32 -58 27 -29 -7 -56
26 -59 72 -2 24 3 30 38 43 22 8 41 15 42 16 1 0 0 11 -4 23 -4 18 -9 20 -24
11 -18 -9 -19 -6 -19 44 0 103 91 224 197 260 65 23 166 17 228 -13z"/>
<path d="M441 679 c-44 -17 -81 -51 -101 -89 -26 -52 -26 -73 0 -65 17 5 20 2
20 -23 0 -26 -5 -31 -45 -42 -25 -7 -45 -15 -45 -18 0 -15 43 -92 52 -92 5 0
18 5 28 10 13 7 21 7 26 -1 12 -19 88 -49 127 -49 90 0 187 77 187 150 0 18
-3 19 -20 10 -17 -9 -20 -8 -20 12 -1 13 -7 40 -14 60 l-13 37 36 12 c51 16
52 18 41 40 -9 16 -15 17 -31 8 -16 -8 -24 -7 -38 5 -44 40 -135 57 -190 35z"/>
</g>
</svg>
